<?xml version="1.0" encoding="utf-8"?>
<!-- Generator: Adobe Illustrator 23.0.1, SVG Export Plug-In . SVG Version: 6.00 Build 0)  -->
<svg version="1.1" id="Layer_1" xmlns="http://www.w3.org/2000/svg" xmlns:xlink="http://www.w3.org/1999/xlink" x="0px" y="0px"
	 viewBox="0 0 100 80" style="enable-background:new 0 0 100 80;" xml:space="preserve">
<style type="text/css">
	.st0{fill:#FFFFFF;}
</style>
<path class="st0" d="M92,0H8C3.6,0,0,3.6,0,8v64c0,4.4,3.6,8,8,8h84c4.4,0,8-3.6,8-8V8C100,3.6,96.4,0,92,0z M60,67.8
	c-1.99,0-3.6-1.61-3.6-3.6s1.61-3.6,3.6-3.6c9.04,0,16.4-7.35,16.4-16.4c0-9.04-7.36-16.4-16.4-16.4H31.12v7.28
	c-1.49,1.49-3.95,1.49-5.44,0l-8.16-8.16c-0.75-0.75-1.12-1.73-1.12-2.72c0-0.98,0.37-1.97,1.12-2.72l8.16-8.16
	c1.49-1.5,3.95-1.5,5.44,0v7.28H60c13.01,0,23.6,10.59,23.6,23.6C83.6,57.22,73.01,67.8,60,67.8z"/>
</svg>
