<?xml version="1.0" encoding="utf-8"?>
<!-- Generator: Adobe Illustrator 23.0.1, SVG Export Plug-In . SVG Version: 6.00 Build 0)  -->
<svg version="1.1" id="Layer_1" xmlns="http://www.w3.org/2000/svg" xmlns:xlink="http://www.w3.org/1999/xlink" x="0px" y="0px"
	 viewBox="0 0 100 80" style="enable-background:new 0 0 100 80;" xml:space="preserve">
<style type="text/css">
	.st0{fill:#FFFFFF;}
</style>
<path class="st0" d="M92,0H8C3.6,0,0,3.6,0,8v64c0,4.4,3.6,8,8,8h84c4.4,0,8-3.6,8-8V8C100,3.6,96.4,0,92,0z M71.5,54.71
	c1.24,1.24,1.24,3.28,0,4.52l-2.27,2.27c-1.24,1.24-3.28,1.24-4.52,0L50,46.79L35.29,61.5c-1.24,1.24-3.28,1.24-4.52,0l-2.27-2.27
	c-1.24-1.24-1.24-3.28,0-4.52L43.21,40L28.5,25.29c-1.24-1.24-1.24-3.28,0-4.52l2.27-2.27c1.24-1.24,3.28-1.24,4.52,0L50,33.21
	L64.71,18.5c1.24-1.24,3.28-1.24,4.52,0l2.27,2.27c1.24,1.24,1.24,3.28,0,4.52L56.79,40L71.5,54.71z"/>
</svg>
