<?xml version="1.0" encoding="utf-8"?>
<!-- Generator: Adobe Illustrator 23.0.1, SVG Export Plug-In . SVG Version: 6.00 Build 0)  -->
<svg version="1.1" id="Layer_1" xmlns="http://www.w3.org/2000/svg" xmlns:xlink="http://www.w3.org/1999/xlink" x="0px" y="0px"
	 viewBox="0 0 100 80" style="enable-background:new 0 0 100 80;" xml:space="preserve">
<style type="text/css">
	.st0{fill:#FFFFFF;}
</style>
<path class="st0" d="M92,0H8C3.6,0,0,3.6,0,8v64c0,4.4,3.6,8,8,8h84c4.4,0,8-3.6,8-8V8C100,3.6,96.4,0,92,0z M80.15,26.45
	l-32.2,32.2c-0.71,0.7-1.63,1.05-2.55,1.05c-0.92,0-1.84-0.35-2.55-1.05l-11-11c-1.4-1.41-1.4-3.69,0-5.1c1.41-1.4,3.69-1.4,5.1,0
	l8.45,8.46l29.65-29.66c1.41-1.4,3.69-1.4,5.1,0C81.55,22.76,81.55,25.04,80.15,26.45z"/>
</svg>
