<svg viewBox="-78 0 511 512" xmlns="http://www.w3.org/2000/svg" xmlns:xlink="http://www.w3.org/1999/xlink"><linearGradient id="a" gradientUnits="userSpaceOnUse" x1=".5001696068" x2="355.6126941008" y1="256.0000988538" y2="256.0000988538"><stop offset="0" stop-color="#80d8ff"/><stop offset="1" stop-color="#ea80fc"/></linearGradient><path d="m213.851562 256c80.355469-56.667969 141.761719-138.148438 141.761719-235.976562 0-11.058594-8.964843-20.023438-20.027343-20.023438-11.058594 0-20.023438 8.964844-20.023438 20.023438 0 12.816406-1.300781 25.539062-3.867188 38.140624h-267.277343c-2.566407-12.601562-3.867188-25.324218-3.867188-38.140624 0-11.058594-8.964843-20.023438-20.027343-20.023438-11.058594 0-20.023438 8.964844-20.023438 20.023438 0 97.859374 61.417969 179.3125 141.761719 235.976562-80.355469 56.667969-141.761719 138.148438-141.761719 235.976562 0 11.058594 8.964844 20.023438 20.023438 20.023438 11.0625 0 20.027343-8.964844 20.027343-20.023438 0-12.816406 1.296875-25.539062 3.867188-38.140624h267.277343c2.566407 12.601562 3.867188 25.324218 3.867188 38.140624 0 11.058594 8.964844 20.023438 20.027344 20.023438 11.058594 0 20.023437-8.964844 20.023437-20.023438 0-97.859374-61.417969-179.3125-141.761719-235.976562zm85.191407-157.785156c-5.882813 13.660156-13.050781 26.511718-21.238281 38.714844h-199.496094c-8.1875-12.203126-15.355469-25.054688-21.238282-38.714844zm-188.21875 78.765625h134.464843c-18.925781 19.625-41.390624 37.992187-67.230468 54.941406-25.84375-16.949219-48.308594-35.320313-67.234375-54.941406zm67.230469 103.097656c25.84375 16.953125 48.308593 35.320313 67.234374 54.941406h-134.464843c18.925781-19.621093 41.390625-37.992187 67.230469-54.941406zm-120.984376 133.707031c5.882813-13.660156 13.050782-26.511718 21.238282-38.714844h199.496094c8.1875 12.199219 15.355468 25.054688 21.238281 38.714844zm0 0" fill="url(#a)"/></svg>