<?xml version="1.0" encoding="utf-8"?>
<!-- Generator: Adobe Illustrator 23.0.1, SVG Export Plug-In . SVG Version: 6.00 Build 0)  -->
<svg version="1.1" id="Layer_1" xmlns="http://www.w3.org/2000/svg" xmlns:xlink="http://www.w3.org/1999/xlink" x="0px" y="0px"
	 viewBox="0 0 100 80" style="enable-background:new 0 0 100 80;" xml:space="preserve">
<style type="text/css">
	.st0{fill:#FFFFFF;}
</style>
<path class="st0" d="M92,0H8C3.6,0,0,3.6,0,8v64c0,4.4,3.6,8,8,8h84c4.4,0,8-3.6,8-8V8C100,3.6,96.4,0,92,0z M27.76,66.87
	c0,1.99-1.61,3.6-3.6,3.6s-3.6-1.61-3.6-3.6c0-11.62,8.16-18.84,17.7-24.55c2.5,1.43,5.02,2.75,7.45,4.02
	C35.87,51.7,27.76,57.47,27.76,66.87z M75.83,70.47c-1.41,0-2.63-0.81-3.22-2H37.93c-1.38,0-2.5-1.13-2.5-2.5
	c0-0.69,0.28-1.31,0.73-1.77c0.46-0.45,1.08-0.73,1.77-0.73h33.92c-0.41-1.82-1.16-3.5-2.18-5.05H47.93c-1.38,0-2.5-1.12-2.5-2.5
	c0-0.68,0.28-1.31,0.73-1.76c0.46-0.46,1.08-0.74,1.77-0.74h17.2c-4.46-3.81-10.54-6.98-16.8-10.23
	c-12.64-6.57-26.93-14-27.74-28.75c-0.01-0.19-0.01-0.39-0.02-0.58v-0.09c-0.01-0.21-0.01-0.43-0.01-0.64c0-1.99,1.61-3.6,3.6-3.6
	c1.41,0,2.63,0.81,3.22,2h34.68c1.38,0,2.5,1.13,2.5,2.5c0,0.69-0.28,1.31-0.73,1.77c-0.45,0.45-1.08,0.73-1.77,0.73H28.14
	c0.41,1.82,1.16,3.5,2.18,5.05h21.74c1.38,0,2.5,1.12,2.5,2.5c0,0.69-0.28,1.32-0.73,1.77s-1.08,0.73-1.77,0.73h-17.2
	c4.46,3.81,10.54,6.98,16.79,10.23C64.3,43.39,78.59,50.82,79.4,65.56c0.01,0.19,0.01,0.39,0.02,0.58v0.09
	c0.01,0.21,0.01,0.43,0.01,0.64C79.43,68.86,77.82,70.47,75.83,70.47z M61.73,37.69c-2.5-1.44-5.03-2.76-7.45-4.03
	c9.84-5.36,17.95-11.13,17.95-20.53c0-1.98,1.61-3.6,3.6-3.6s3.6,1.62,3.6,3.6C79.43,24.74,71.27,31.97,61.73,37.69z"/>
</svg>
