<?xml version="1.0" encoding="utf-8"?>
<!-- Generator: Adobe Illustrator 23.0.1, SVG Export Plug-In . SVG Version: 6.00 Build 0)  -->
<svg version="1.1" id="Layer_1" xmlns="http://www.w3.org/2000/svg" xmlns:xlink="http://www.w3.org/1999/xlink" x="0px" y="0px"
	 viewBox="0 0 100 80" style="enable-background:new 0 0 100 80;" xml:space="preserve">
<style type="text/css">
	.st0{fill:#FFFFFF;}
</style>
<path class="st0" d="M92,0H8C3.6,0,0,3.6,0,8v64c0,4.4,3.6,8,8,8h84c4.4,0,8-3.6,8-8V8C100,3.6,96.4,0,92,0z M29.69,38.5
	c1.24-1.55,3.51-1.8,5.06-0.56l11.65,9.32V14.75c0-1.99,1.61-3.6,3.6-3.6s3.6,1.61,3.6,3.6v32.51l11.65-9.32
	c1.55-1.24,3.82-0.99,5.06,0.56s0.99,3.82-0.56,5.06l-17.5,14c-0.66,0.53-1.45,0.79-2.25,0.79s-1.59-0.26-2.25-0.79l-17.5-14
	C28.7,42.32,28.45,40.05,29.69,38.5z M67.5,68.85h-35c-1.99,0-3.6-1.61-3.6-3.6s1.61-3.6,3.6-3.6h35c1.99,0,3.6,1.61,3.6,3.6
	S69.49,68.85,67.5,68.85z"/>
</svg>
