<svg class="svg-icon" viewBox="0 0 20 20">
							<path style="fill:#FFFFFF" d="M9.634,10.633c0.116,0.113,0.265,0.168,0.414,0.168c0.153,0,0.308-0.06,0.422-0.177l4.015-4.111c0.229-0.235,0.225-0.608-0.009-0.836c-0.232-0.229-0.606-0.222-0.836,0.009l-3.604,3.689L6.35,5.772C6.115,5.543,5.744,5.55,5.514,5.781C5.285,6.015,5.29,6.39,5.522,6.617L9.634,10.633z"></path>
							<path fill="none" d="M17.737,9.815c-0.327,0-0.592,0.265-0.592,0.591v2.903H2.855v-2.903c0-0.327-0.264-0.591-0.591-0.591c-0.327,0-0.591,0.265-0.591,0.591V13.9c0,0.328,0.264,0.592,0.591,0.592h15.473c0.327,0,0.591-0.264,0.591-0.592v-3.494C18.328,10.08,18.064,9.815,17.737,9.815z"></path>
						</svg>