<?xml version="1.0" encoding="utf-8"?>
<!-- Generator: Adobe Illustrator 23.0.1, SVG Export Plug-In . SVG Version: 6.00 Build 0)  -->
<svg version="1.1" id="Layer_1" xmlns="http://www.w3.org/2000/svg" xmlns:xlink="http://www.w3.org/1999/xlink" x="0px" y="0px"
	 viewBox="0 0 100 80" style="enable-background:new 0 0 100 80;" xml:space="preserve">
<style type="text/css">
	.st0{fill:#FFFFFF;}
</style>
<path class="st0" d="M92,0H8C3.6,0,0,3.6,0,8v64c0,4.4,3.6,8,8,8h84c4.4,0,8-3.6,8-8V8C100,3.6,96.4,0,92,0z M53.31,24.96
	c0-1.58,1.29-2.88,2.88-2.88c1.59,0,2.88,1.3,2.88,2.88c0,9.29-6.53,15.07-14.16,19.65c-2-1.15-4.02-2.21-5.96-3.23
	C46.82,37.1,53.31,32.48,53.31,24.96z M17.73,67.95c0,1.59-1.28,2.88-2.88,2.88c-1.59,0-2.88-1.29-2.88-2.88
	c0-9.29,6.53-15.07,14.16-19.64c2,1.15,4.02,2.2,5.96,3.22C24.22,55.82,17.73,60.43,17.73,67.95z M56.19,70.83
	c-1.13,0-2.11-0.65-2.58-1.6H25.87c-1.1,0-2-0.9-2-2c0-0.55,0.22-1.05,0.59-1.41c0.36-0.37,0.86-0.59,1.41-0.59H53
	c-0.32-1.46-0.92-2.79-1.74-4.04H33.87c-1.1,0-2-0.9-2-2c0-0.55,0.22-1.05,0.59-1.41c0.36-0.37,0.86-0.59,1.41-0.59h13.77
	c-3.57-3.04-8.44-5.58-13.45-8.18C24.07,43.75,12.63,37.8,12,25.99c-0.01-0.17-0.02-0.34-0.02-0.51c0-0.01,0-0.02,0-0.02
	c-0.01-0.17-0.01-0.33-0.01-0.5c0-1.59,1.29-2.88,2.88-2.88c1.13,0,2.11,0.65,2.58,1.6h27.74c1.1,0,2,0.9,2,2
	c0,0.55-0.22,1.05-0.59,1.41c-0.36,0.36-0.86,0.59-1.41,0.59H18.04c0.32,1.46,0.92,2.79,1.74,4.04h17.39c1.1,0,2,0.9,2,2
	c0,0.55-0.22,1.05-0.59,1.41c-0.36,0.36-0.86,0.59-1.41,0.59H23.4c3.57,3.04,8.44,5.58,13.45,8.18
	c10.12,5.27,21.56,11.22,22.19,23.02c0.01,0.17,0.02,0.34,0.02,0.51c0,0.01,0,0.02,0,0.02c0.01,0.17,0.01,0.33,0.01,0.5
	C59.07,69.54,57.78,70.83,56.19,70.83z M67.03,51.56l-6.83,1.83l-1.83-6.83l16.87-29.23l8.66,5L67.03,51.56z M87.53,16.05
	l-1.88,3.25l-8.66-5l1.88-3.25c0.51-0.89,1.35-1.5,2.28-1.74c0.92-0.25,1.95-0.15,2.84,0.37l2.17,1.25
	C87.94,11.96,88.56,14.26,87.53,16.05z"/>
</svg>
