<?xml version="1.0" encoding="utf-8"?>
<!-- Generator: Adobe Illustrator 23.0.1, SVG Export Plug-In . SVG Version: 6.00 Build 0)  -->
<svg version="1.1" id="Layer_1" xmlns="http://www.w3.org/2000/svg" xmlns:xlink="http://www.w3.org/1999/xlink" x="0px" y="0px"
	 viewBox="0 0 100 80" style="enable-background:new 0 0 100 80;" xml:space="preserve">
<style type="text/css">
	.st0{fill:#FFFFFF;}
</style>
<path class="st0" d="M33.9,46.52v-13c0-0.43,0.35-0.78,0.78-0.78h1.6c0.43,0,0.78,0.35,0.78,0.78v4.72h7.61v-4.72
	c0-0.43,0.35-0.78,0.78-0.78h1.6c0.43,0,0.78,0.35,0.78,0.78v13c0,0.43-0.35,0.78-0.78,0.78h-1.6c-0.43,0-0.78-0.35-0.78-0.78v-5.11
	h-7.61v5.11c0,0.43-0.35,0.78-0.78,0.78h-1.6C34.25,47.3,33.9,46.95,33.9,46.52z"/>
<path class="st0" d="M64.16,34.73c-1.32-1.31-3.2-2.03-5.31-2.03h-0.04l-6.45,0.04c-0.43,0.01-0.78,0.35-0.78,0.78v13
	c0,0.43,0.35,0.78,0.78,0.78h6.43c4.3,0,7.31-3.15,7.31-7.66C66.1,37.72,65.41,35.97,64.16,34.73z M61.6,42.99
	c-0.78,0.78-1.9,1.21-3.28,1.21l-3.58,0.01v-8.37c0.13-0.01,0.26-0.01,0.4-0.01c0.86-0.01,2.02-0.03,3.2-0.03
	c2.75,0,4.46,1.5,4.46,3.9C62.8,41.08,62.37,42.21,61.6,42.99z"/>
<path class="st0" d="M92,0H8C3.6,0,0,3.6,0,8v64c0,4.4,3.6,8,8,8h84c4.4,0,8-3.6,8-8V8C100,3.6,96.4,0,92,0z M52.3,15h8.05v4H52.3
	V15z M39.65,15h8.05v4h-8.05V15z M27,15h8.05v4H27V15z M35.05,65H27v-4h8.05V65z M47.7,65h-8.05v-4h8.05V65z M60.35,65H52.3v-4h8.05
	V65z M73,65h-8.05v-4H73V65z M73,57H27V23h46V57z M73,19h-8.05v-4H73V19z"/>
<g>
	<path class="st0" d="M47.83,33.52v13c0,0.43-0.35,0.78-0.78,0.78h-1.6c-0.43,0-0.78-0.35-0.78-0.78v-5.11h-7.61v5.11
		c0,0.43-0.35,0.78-0.78,0.78h-1.6c-0.43,0-0.78-0.35-0.78-0.78v-13c0-0.43,0.35-0.78,0.78-0.78h1.6c0.43,0,0.78,0.35,0.78,0.78
		v4.72h7.61v-4.72c0-0.43,0.35-0.78,0.78-0.78h1.6C47.48,32.74,47.83,33.09,47.83,33.52z"/>
	<path class="st0" d="M64.16,34.73c-1.32-1.31-3.2-2.03-5.31-2.03h-0.04l-6.45,0.04c-0.43,0.01-0.78,0.35-0.78,0.78v13
		c0,0.43,0.35,0.78,0.78,0.78h6.43c4.3,0,7.31-3.15,7.31-7.66C66.1,37.72,65.41,35.97,64.16,34.73z M61.6,42.99
		c-0.78,0.78-1.9,1.21-3.28,1.21l-3.58,0.01v-8.37c0.13-0.01,0.26-0.01,0.4-0.01c0.86-0.01,2.02-0.03,3.2-0.03
		c2.75,0,4.46,1.5,4.46,3.9C62.8,41.08,62.37,42.21,61.6,42.99z"/>
</g>
<g>
	<g>
		<path class="st0" d="M47.05,32.74h-1.6c-0.43,0-0.78,0.35-0.78,0.78v4.72h-7.61v-4.72c0-0.43-0.35-0.78-0.78-0.78h-1.6
			c-0.43,0-0.78,0.35-0.78,0.78v13c0,0.43,0.35,0.78,0.78,0.78h1.6c0.43,0,0.78-0.35,0.78-0.78v-5.11h7.61v5.11
			c0,0.43,0.35,0.78,0.78,0.78h1.6c0.43,0,0.78-0.35,0.78-0.78v-13C47.83,33.09,47.48,32.74,47.05,32.74z"/>
	</g>
	<g>
		<path class="st0" d="M64.16,34.73c-1.32-1.31-3.2-2.03-5.31-2.03h-0.04l-6.45,0.04c-0.43,0.01-0.78,0.35-0.78,0.78v13
			c0,0.43,0.35,0.78,0.78,0.78h6.43c4.3,0,7.31-3.15,7.31-7.66C66.1,37.72,65.41,35.97,64.16,34.73z M61.6,42.99
			c-0.78,0.78-1.9,1.21-3.28,1.21l-3.58,0.01v-8.37c0.13-0.01,0.26-0.01,0.4-0.01c0.86-0.01,2.02-0.03,3.2-0.03
			c2.75,0,4.46,1.5,4.46,3.9C62.8,41.08,62.37,42.21,61.6,42.99z"/>
	</g>
</g>
</svg>
