<svg viewBox="0 -12 480 480"  xmlns="http://www.w3.org/2000/svg"><path style="fill:#FFFFFF" d="m472 104h-32c-2.675781 0-5.171875 1.335938-6.65625 3.558594l-49.34375 74.042968v-69.601562c0-13.253906-10.746094-24-24-24h-8.441406c.265625-2.679688.441406-5.351562.441406-8 0-44.183594-35.816406-80-80-80s-80 35.816406-80 80c0 2.648438.175781 5.320312.441406 8h-16.992187c-4.164063-32.167969-31.730469-56.132812-64.160157-55.785156-32.433593.351562-59.476562 24.90625-62.945312 57.152344-9.726562 3.273437-16.292969 12.371093-16.34375 22.632812v49.761719l-19.878906 4.964843c-7.125 1.78125-12.121094 8.179688-12.121094 15.519532v131.507812c0 7.339844 4.996094 13.738282 12.121094 15.519532l19.878906 4.964843v49.761719c0 13.253906 10.746094 24 24 24h40v32c0 8.835938 7.164062 16 16 16h192c8.835938 0 16-7.164062 16-16v-32h40c13.253906 0 24-10.746094 24-24v-69.601562l49.34375 74.015624c1.480469 2.234376 3.976562 3.582032 6.65625 3.585938h32c4.417969 0 8-3.582031 8-8v-272c0-4.417969-3.582031-8-8-8zm-200-88c35.328125.039062 63.960938 28.671875 64 64-.023438 4.785156-.558594 9.554688-1.601562 14.222656-6.785157 29.027344-32.589844 49.613282-62.398438 49.777344-3.660156 0-7.3125-.320312-10.921875-.953125-25.375-4.519531-45.625-23.707031-51.511719-48.800781-1.027344-4.679688-1.554687-9.453125-1.566406-14.246094.039062-35.328125 28.671875-63.960938 64-64zm-160 32c26.507812 0 48 21.492188 48 48s-21.492188 48-48 48-48-21.492188-48-48c.027344-26.5 21.5-47.972656 48-48zm-96 265.753906v-131.515625l16-4v139.515625zm288 126.246094h-192v-32h192zm64-56c0 4.417969-3.582031 8-8 8h-304c-4.417969 0-8-3.582031-8-8v-272c0-1.433594.382812-2.839844 1.113281-4.070312 0 .183593.085938.351562.125.527343.128907.679688.3125 1.328125.464844 1.992188.304687 1.292969.617187 2.582031.992187 3.839843.226563.734376.480469 1.453126.71875 2.183594.394532 1.160156.800782 2.3125 1.265626 3.4375.296874.738282.617187 1.457032.9375 2.179688.488281 1.085937 1.007812 2.15625 1.550781 3.199218.359375.695313.726562 1.390626 1.113281 2.070313.597656 1.054687 1.222656 2.074219 1.878906 3.089844.40625.628906.800782 1.269531 1.230469 1.886719.730469 1.054687 1.503906 2.0625 2.296875 3.070312.417969.53125.800781 1.066406 1.234375 1.601562 1.023437 1.230469 2.109375 2.398438 3.199219 3.542969.238281.25.453125.511719.695312.761719 1.375 1.367188 2.824219 2.679688 4.320313 3.925781.390625.328125.800781.617188 1.222656.9375 1.121094.886719 2.25 1.753907 3.433594 2.566407.582031.402343 1.199219.800781 1.800781 1.152343 1.039062.671875 2.085938 1.320313 3.199219 1.929688.679687.382812 1.382812.734375 2.078125 1.097656 1.050781.542969 2.113281 1.054687 3.199218 1.542969.738282.324218 1.480469.636718 2.234376.933594 1.101562.441406 2.214843.847656 3.34375 1.234374.757812.253907 1.527343.511719 2.304687.734376 1.175781.351562 2.398437.640624 3.574219.921874.753906.175782 1.503906.367188 2.273437.519532 1.328125.253906 2.6875.449218 4.046875.617187.664063.085938 1.3125.207031 1.976563.269531 2.039062.191407 4.105469.3125 6.191406.3125 2.101563 0 4.203125-.109374 6.296875-.320312.695312-.0625 1.375-.199219 2.0625-.289062 1.359375-.183594 2.730469-.359376 4.058594-.621094.796875-.160156 1.597656-.378906 2.398437-.570313 1.183594-.277343 2.398438-.558593 3.527344-.910156.800781-.25 1.601563-.542969 2.457031-.800781 1.085938-.375 2.175782-.753906 3.238282-1.183594.800781-.335938 1.601562-.710938 2.402343-1.082031 1.007813-.453125 2.007813-.925781 2.992188-1.4375.796875-.417969 1.597656-.855469 2.398437-1.3125.945313-.542969 1.878906-1.105469 2.792969-1.695313.757813-.488281 1.503906-.992187 2.238281-1.511718.882813-.625 1.746094-1.273438 2.59375-1.945313.710938-.550781 1.414063-1.121094 2.09375-1.703125.800782-.703125 1.601563-1.441406 2.402344-2.183594.648438-.617187 1.296875-1.226562 1.910156-1.867187.800782-.796875 1.503906-1.597657 2.226563-2.445313.574219-.65625 1.160156-1.296875 1.710937-1.976562.71875-.894532 1.390625-1.824219 2.0625-2.753906.480469-.671876.992188-1.328126 1.449219-2.015626.695313-1.046874 1.328125-2.144531 1.96875-3.199218.359375-.625.800781-1.230469 1.101563-1.863282.882812-1.601562 1.679687-3.304687 2.402343-5.015624.054688-.136719.128907-.265626.183594-.402344.800781-1.824219 1.464844-3.703125 2.0625-5.597656.199219-.625.335937-1.273438.511719-1.90625.378906-1.320313.746094-2.636719 1.035156-4 .160156-.757813.261719-1.550782.398438-2.320313.175781-1 .390624-1.980469.519531-3h20.128906l.09375.273437c.242187.800782.53125 1.480469.800781 2.234376.472656 1.359374.945313 2.71875 1.480469 4.046874.34375.839844.746094 1.648438 1.113281 2.480469.535156 1.183594 1.0625 2.398438 1.648438 3.519531.421875.847657.902344 1.65625 1.359375 2.488282.597656 1.078125 1.199219 2.167968 1.847656 3.199218.503906.800782 1.046875 1.601563 1.601563 2.398438.679687 1 1.351562 2.007812 2.0625 2.976562.574218.800782 1.175781 1.527344 1.777343 2.289063.742188.925781 1.484375 1.855469 2.269531 2.75.632813.738281 1.296876 1.441406 1.960938 2.144531.800781.863282 1.601562 1.714844 2.464844 2.527344.695312.683594 1.40625 1.347656 2.125 1.992188.867187.789062 1.75 1.5625 2.65625 2.3125.753906.617187 1.503906 1.226562 2.273437 1.816406.9375.710937 1.886719 1.402344 2.847657 2.082031.800781.550781 1.601562 1.101563 2.402343 1.597656.988281.648438 2.007813 1.257813 3.039063 1.855469.800781.488281 1.65625.96875 2.503906 1.425781 1.054688.566407 2.136719 1.097657 3.199219 1.601563.863281.414062 1.71875.839844 2.601562 1.222656 1.117188.488281 2.261719.925781 3.40625 1.359375.878907.335937 1.753907.6875 2.648438 1 1.191406.398437 2.398437.753906 3.625 1.105469.878906.253906 1.757812.535156 2.65625.757812 1.285156.328125 2.597656.585938 3.910156.847656.855469.167969 1.695313.378907 2.570313.519532 1.460937.242187 2.957031.402344 4.460937.570312.730469.078125 1.441406.199219 2.175781.261719 2.25.1875 4.511719.289063 6.800782.289063 2.289062 0 4.550781-.101563 6.800781-.289063.734375-.0625 1.449219-.183594 2.175781-.261719 1.503906-.167968 3-.328125 4.464844-.570312.863281-.140625 1.703125-.351563 2.558594-.519532 1.3125-.261718 2.632812-.519531 3.921874-.847656.886719-.222656 1.75-.496094 2.628907-.75 1.226562-.359375 2.457031-.707031 3.65625-1.121094.882812-.296874 1.730469-.640624 2.59375-.96875 1.167969-.449218 2.34375-.902343 3.488281-1.398437.800781-.367187 1.664062-.800781 2.496094-1.167969 1.121094-.535156 2.238281-1.082031 3.328125-1.671875.800781-.433593 1.597656-.890625 2.398437-1.351562 1.082032-.632813 2.144532-1.273438 3.199219-1.953125.753906-.488282 1.488281-.992188 2.226563-1.503906 1.039062-.726563 2.054687-1.464844 3.054687-2.242188.695313-.535156 1.375-1.078125 2.054687-1.597656.992188-.800782 1.960938-1.664063 2.914063-2.527344.632813-.578125 1.257813-1.160156 1.871094-1.753906.945312-.917969 1.855469-1.863282 2.753906-2.832032.566406-.597656 1.125-1.207031 1.671875-1.832031.894531-1.023437 1.761719-2.089843 2.597656-3.199219.488282-.617187.984375-1.230468 1.457032-1.871093.800781-1.136719 1.601562-2.304688 2.398437-3.488281.417969-.632813.851563-1.25 1.25-1.898438.800781-1.253906 1.496094-2.550781 2.207031-3.855469.335938-.621093.695313-1.230469 1.023438-1.863281.714844-1.390625 1.359375-2.832031 1.992187-4.28125.257813-.589844.546875-1.160156.800781-1.75.664063-1.601562 1.25-3.265625 1.808594-4.929688.152344-.46875.34375-.917968.496094-1.398437 0-.105469.070312-.199219.101562-.304687h11.585938c4.417969 0 8 3.582031 8 8zm96-8h-19.71875l-60.28125-90.398438v-75.203124l60.28125-90.398438h19.71875zm0 0"/><path style="fill:#FFFFFF" d="m112 136c22.089844 0 40-17.910156 40-40s-17.910156-40-40-40-40 17.910156-40 40c.027344 22.082031 17.917969 39.972656 40 40zm0-64c13.253906 0 24 10.746094 24 24s-10.746094 24-24 24-24-10.746094-24-24 10.746094-24 24-24zm0 0"/><path style="fill:#FFFFFF" d="m272 136c30.929688 0 56-25.070312 56-56s-25.070312-56-56-56-56 25.070312-56 56c.035156 30.914062 25.085938 55.964844 56 56zm0-96c22.089844 0 40 17.910156 40 40s-17.910156 40-40 40-40-17.910156-40-40c.027344-22.082031 17.917969-39.972656 40-40zm0 0"/><path style="fill:#FFFFFF" d="m264 216h-32c-4.417969 0-8 3.582031-8 8v96c0 4.417969 3.582031 8 8 8h32c22.082031-.027344 39.972656-17.917969 40-40v-32c-.027344-22.082031-17.917969-39.972656-40-40zm24 72c0 13.253906-10.746094 24-24 24h-24v-80h24c13.253906 0 24 10.746094 24 24zm0 0"/><path style="fill:#FFFFFF" d="m176 264h-48v-48h-16v112h16v-48h48v48h16v-112h-16zm0 0"/></svg>