<?xml version="1.0" encoding="utf-8"?>
<!-- Generator: Adobe Illustrator 23.0.1, SVG Export Plug-In . SVG Version: 6.00 Build 0)  -->
<svg version="1.1" id="Layer_1" xmlns="http://www.w3.org/2000/svg" xmlns:xlink="http://www.w3.org/1999/xlink" x="0px" y="0px"
	 viewBox="0 0 100 80" style="enable-background:new 0 0 100 80;" xml:space="preserve">
<style type="text/css">
	.st0{fill:#FFFFFF;}
</style>
<path class="st0" d="M16.27,25.48l54.2,54.2H8c-4.4,0-8-3.6-8-8V41.75L16.27,25.48z M58.67,16.86c-4.22,0-7.65,3.43-7.65,7.65
	c0,4.22,3.43,7.65,7.65,7.65c4.21,0,7.65-3.43,7.65-7.65C66.32,20.29,62.88,16.86,58.67,16.86z M100,7.68v36.34L88.82,32.84
	c-1.41-1.4-3.69-1.4-5.1,0L58.77,57.79L18.82,17.84c-1.41-1.4-3.69-1.4-5.1,0L0,31.56V7.68c0-4.4,3.6-8,8-8h84
	C96.4-0.32,100,3.28,100,7.68z M73.52,24.51c0-8.19-6.67-14.85-14.85-14.85c-8.19,0-14.85,6.66-14.85,14.85s6.66,14.85,14.85,14.85
	C66.85,39.36,73.52,32.7,73.52,24.51z M63.87,62.89l16.79,16.79H92c4.4,0,8-3.6,8-8V54.21L86.27,40.48L63.87,62.89z"/>
</svg>
