<?xml version="1.0" encoding="utf-8"?>
<!-- Generator: Adobe Illustrator 23.0.1, SVG Export Plug-In . SVG Version: 6.00 Build 0)  -->
<svg version="1.1" id="Layer_1" xmlns="http://www.w3.org/2000/svg" xmlns:xlink="http://www.w3.org/1999/xlink" x="0px" y="0px"
	 viewBox="0 0 100 80" style="enable-background:new 0 0 100 80;" xml:space="preserve">
<style type="text/css">
	.st0{fill:#FFFFFF;}
</style>
<path class="st0" d="M39.37,46.83V33.17c0-1.62,0.94-3.09,2.41-3.78c1.47-0.68,3.2-0.46,4.45,0.59l12.91,6.82
	c0.94,0.79,1.49,1.97,1.49,3.2c0,1.23-0.55,2.41-1.49,3.2l-12.91,6.82c-1.25,1.05-2.98,1.27-4.45,0.59
	C40.31,49.92,39.37,48.45,39.37,46.83z"/>
<path class="st0" d="M92,0H8C3.6,0,0,3.6,0,8v64c0,4.4,3.6,8,8,8h84c4.4,0,8-3.6,8-8V8C100,3.6,96.4,0,92,0z M52.3,15h8.05v4H52.3
	V15z M39.65,15h8.05v4h-8.05V15z M27,15h8.05v4H27V15z M35.05,65H27v-4h8.05V65z M47.7,65h-8.05v-4h8.05V65z M60.35,65H52.3v-4h8.05
	V65z M73,65h-8.05v-4H73V65z M73,57H27V23h46V57z M73,19h-8.05v-4H73V19z"/>
<g>
	<path class="st0" d="M60.63,40c0,1.23-0.55,2.41-1.49,3.2l-12.91,6.82c-1.25,1.05-2.98,1.27-4.45,0.59
		c-1.47-0.69-2.41-2.16-2.41-3.78V33.17c0-1.62,0.94-3.09,2.41-3.78c1.47-0.68,3.2-0.46,4.45,0.59l12.91,6.82
		C60.08,37.59,60.63,38.77,60.63,40z"/>
</g>
<path class="st0" d="M60.63,40c0,1.23-0.55,2.41-1.49,3.2l-12.91,6.82c-1.25,1.05-2.98,1.27-4.45,0.59
	c-1.47-0.69-2.41-2.16-2.41-3.78V33.17c0-1.62,0.94-3.09,2.41-3.78c1.47-0.68,3.2-0.46,4.45,0.59l12.91,6.82
	C60.08,37.59,60.63,38.77,60.63,40z"/>
</svg>
