<svg version="1.1" viewBox="0 0 24 24" xml:space="preserve" xmlns="http://www.w3.org/2000/svg" xmlns:xlink="http://www.w3.org/1999/xlink">
  
  <g>
    <path fill="none" d="M22.3948,6.6651   l-5.4159,2.673c-0.2766,0.1158-0.4788,0.3752-0.4788,0.6608v2.9758c0,0.2856,0.1977,0.5446,0.4743,0.6608l5.4021,2.6729   C22.8946,16.525,23.5,16.16,23.5,15.6472V7.3264C23.5,6.8312,22.9236,6.4446,22.3948,6.6651z"  stroke="#FFFFFF" stroke-linecap="round" stroke-linejoin="round" stroke-miterlimit="10"/>
    <path  fill="none"  d="M15.585,5.5H1.3805   C0.8538,5.5,0.5,5.9138,0.5,6.4326V16.54c0,0.5188,0.3538,0.96,0.8805,0.96H15.585c0.5252,0,0.9151-0.4412,0.9151-0.96V6.4326   C16.5001,5.9138,16.1102,5.5,15.585,5.5z"  stroke="#FFFFFF" stroke-linecap="round" stroke-linejoin="round" stroke-miterlimit="10"/>
   
   
  </g>
</svg>