<?xml version="1.0" encoding="utf-8"?>
<!-- Generator: Adobe Illustrator 23.0.1, SVG Export Plug-In . SVG Version: 6.00 Build 0)  -->
<svg version="1.1" id="Layer_1" xmlns="http://www.w3.org/2000/svg" xmlns:xlink="http://www.w3.org/1999/xlink" x="0px" y="0px"
	 viewBox="0 0 100 80" style="enable-background:new 0 0 100 80;" xml:space="preserve">
<style type="text/css">
	.st0{fill:#FFFFFF;}
</style>
<path class="st0" d="M92,0H8C3.6,0,0,3.6,0,8v64c0,4.4,3.6,8,8,8h84c4.4,0,8-3.6,8-8V8C100,3.6,96.4,0,92,0z M50,68.6
	c-14.19,0-25.74-11.55-25.74-25.74c0-9.46,5.13-17.74,12.75-22.21l3.04,5.73c-5.58,3.37-9.31,9.51-9.31,16.48
	c0,10.62,8.64,19.26,19.26,19.26s19.26-8.64,19.26-19.26c0-7.28-4.07-13.64-10.05-16.91l-1.84,6.01c-1.68,0.89-3.79,0.25-4.69-1.44
	l-4.87-9.17c-0.45-0.84-0.5-1.78-0.25-2.63c0.26-0.85,0.84-1.6,1.68-2.05l9.17-4.87c1.69-0.9,3.79-0.25,4.68,1.43l-1.91,6.27
	l-0.05,0.16c8.63,4.15,14.61,12.99,14.61,23.2C75.74,57.05,64.19,68.6,50,68.6z"/>
</svg>
