<?xml version="1.0" encoding="utf-8"?>
<!-- Generator: Adobe Illustrator 23.0.1, SVG Export Plug-In . SVG Version: 6.00 Build 0)  -->
<svg version="1.1" id="Layer_1" xmlns="http://www.w3.org/2000/svg" xmlns:xlink="http://www.w3.org/1999/xlink" x="0px" y="0px"
	 viewBox="0 0 100 80" style="enable-background:new 0 0 100 80;" xml:space="preserve">
<style type="text/css">
	.st0{fill:#FFFFFF;}
</style>
<g>
	<circle class="st0" cx="50" cy="40" r="12.07"/>
	<path class="st0" d="M92,0H8C3.6,0,0,3.6,0,8v64c0,4.4,3.6,8,8,8h84c4.4,0,8-3.6,8-8V8C100,3.6,96.4,0,92,0z M68.74,47.76
		c-1.22,2.96,3.28,9.82,1.06,12.04c-2.22,2.22-9.09-2.28-12.04-1.06C54.92,59.93,53.28,68,50,68c-3.27,0-4.91-8.07-7.76-9.26
		c-2.94-1.22-9.81,3.28-12.03,1.06c-2.22-2.22,2.28-9.09,1.06-12.04C30.09,44.92,22,43.28,22,40c0-3.27,8.09-4.91,9.27-7.76
		c1.22-2.94-3.28-9.81-1.06-12.03c2.22-2.22,9.09,2.28,12.03,1.06C45.09,20.09,46.73,12,50,12c3.28,0,4.92,8.09,7.76,9.27
		c2.96,1.22,9.82-3.28,12.04-1.06c2.22,2.22-2.28,9.09-1.06,12.03C69.93,35.09,78,36.73,78,40C78,43.28,69.93,44.92,68.74,47.76z"/>
</g>
</svg>
