<?xml version="1.0" encoding="utf-8"?>
<!-- Generator: Adobe Illustrator 23.0.1, SVG Export Plug-In . SVG Version: 6.00 Build 0)  -->
<svg version="1.1" id="Layer_1" xmlns="http://www.w3.org/2000/svg" xmlns:xlink="http://www.w3.org/1999/xlink" x="0px" y="0px"
	 viewBox="0 0 100 80" style="enable-background:new 0 0 100 80;" xml:space="preserve">
<style type="text/css">
	.st0{fill:#FFFFFF;}
</style>
<path class="st0" d="M92,0H8C3.6,0,0,3.6,0,8v64c0,4.4,3.6,8,8,8h84c4.4,0,8-3.6,8-8V8C100,3.6,96.4,0,92,0z M79.58,26.91
	c-18.28,12.05-31.06,31-31.19,31.19c-0.6,0.9-1.56,1.48-2.64,1.58c-0.12,0.01-0.23,0.02-0.35,0.02c-0.95,0-1.87-0.38-2.55-1.05
	l-11-11c-1.4-1.41-1.4-3.69,0-5.1c1.41-1.4,3.69-1.4,5.1,0l8,8.01c4.78-6.37,15.91-19.93,30.67-29.66c1.66-1.1,3.89-0.64,4.98,1.02
	C81.7,23.58,81.24,25.81,79.58,26.91z"/>
</svg>
