<?xml version="1.0" encoding="utf-8"?>
<!-- Generator: Adobe Illustrator 23.0.1, SVG Export Plug-In . SVG Version: 6.00 Build 0)  -->
<svg version="1.1" id="Layer_1" xmlns="http://www.w3.org/2000/svg" xmlns:xlink="http://www.w3.org/1999/xlink" x="0px" y="0px"
	 viewBox="0 0 100 80" style="enable-background:new 0 0 100 80;" xml:space="preserve">
<style type="text/css">
	.st0{fill:#FFFFFF;}
</style>
<path class="st0" d="M47.88,21.76c4.44,4.45,4.44,11.67,0,16.12c-4.44,4.44-11.68,4.45-16.13,0c-4.44-4.44-4.44-11.68,0-16.12
	C36.2,17.31,43.44,17.32,47.88,21.76z M100,8v64c0,4.4-3.6,8-8,8H8c-4.4,0-8-3.6-8-8V8c0-4.4,3.6-8,8-8h84C96.4,0,100,3.6,100,8z
	 M77.72,62.63L55.27,40.18c4.85-7.23,4.08-17.13-2.3-23.51c-7.25-7.25-19.05-7.26-26.31,0c-7.24,7.24-7.24,19.05,0,26.3
	c6.39,6.39,16.29,7.15,23.51,2.29l22.46,22.46c1.4,1.41,3.69,1.4,5.09,0C79.12,66.31,79.12,64.04,77.72,62.63z"/>
</svg>
